<svg width="6" height="6" viewBox="0 0 6 6" fill="none" xmlns="http://www.w3.org/2000/svg">
<path d="M2.92992 5.34C2.86326 5.34 2.80659 5.32 2.75992 5.28C2.71992 5.23333 2.69992 5.17667 2.69992 5.11V3.03H0.649922C0.583255 3.03 0.526589 3.01 0.479922 2.97C0.439922 2.92333 0.419922 2.86667 0.419922 2.8V2.48C0.419922 2.41333 0.439922 2.36 0.479922 2.32C0.526589 2.27333 0.583255 2.25 0.649922 2.25H2.69992V0.23C2.69992 0.163333 2.71992 0.11 2.75992 0.0700004C2.80659 0.0233335 2.86326 0 2.92992 0H3.27992C3.34659 0 3.39992 0.0233335 3.43992 0.0700004C3.48659 0.11 3.50992 0.163333 3.50992 0.23V2.25H5.56992C5.63659 2.25 5.68992 2.27333 5.72992 2.32C5.77659 2.36 5.79992 2.41333 5.79992 2.48V2.8C5.79992 2.86667 5.77659 2.92333 5.72992 2.97C5.68992 3.01 5.63659 3.03 5.56992 3.03H3.50992V5.11C3.50992 5.17667 3.48659 5.23333 3.43992 5.28C3.39992 5.32 3.34659 5.34 3.27992 5.34H2.92992Z" fill="black"/>
</svg>
